HIERARCHY
ROOT Hips
{
	OFFSET 0.000000 0.000000 0.000000 
	CHANNELS 6 Xposition Yposition Zposition Zrotation Yrotation Xrotation
	JOINT LeftUpLeg
	{
		OFFSET 1.363060 -1.794630 0.839290 
		CHANNELS 3 Zrotation Yrotation Xrotation
		JOINT LeftLeg
		{
			OFFSET 2.448110 -6.726130 0.000000 
			CHANNELS 3 Zrotation Yrotation Xrotation
			JOINT LeftFoot
			{
				OFFSET 2.562200 -7.039590 0.000000 
				CHANNELS 3 Zrotation Yrotation Xrotation
				JOINT LeftToeBase
				{
					OFFSET 0.157640 -0.433110 2.322550 
					CHANNELS 3 Zrotation Yrotation Xrotation
					End Site
					{
						OFFSET 0.000000 0.000000 0.000000 
					}
				}
			}
		}
	}
	JOINT RightUpLeg
	{
		OFFSET -1.305520 -1.794630 0.839290 
		CHANNELS 3 Zrotation Yrotation Xrotation
		JOINT RightLeg
		{
			OFFSET -2.542530 -6.985550 0.000000 
			CHANNELS 3 Zrotation Yrotation Xrotation
			JOINT RightFoot
			{
				OFFSET -2.568260 -7.056230 0.000000 
				CHANNELS 3 Zrotation Yrotation Xrotation
				JOINT RightToeBase
				{
					OFFSET -0.164730 -0.452590 2.363150 
					CHANNELS 3 Zrotation Yrotation Xrotation
					End Site
					{
						OFFSET 0.000000 0.000000 0.000000 
					}
				}
			}
		}
	}
	JOINT Spine
	{
		OFFSET 0.028270 2.035590 -0.193380 
		CHANNELS 3 Zrotation Yrotation Xrotation
		JOINT Spine1
		{
			OFFSET 0.056720 2.048850 -0.042750 
			CHANNELS 3 Zrotation Yrotation Xrotation
			JOINT Neck1
			{
				OFFSET -0.054170 1.746240 0.172020 
				CHANNELS 3 Zrotation Yrotation Xrotation
				JOINT Head
				{
					OFFSET 0.104070 1.761360 -0.123970 
					CHANNELS 3 Zrotation Yrotation Xrotation
					End Site
					{
						OFFSET 0.000000 0.000000 0.000000 
					}
				}
			}
			JOINT LeftArm
			{
				OFFSET 3.362410 1.200890 -0.311210 
				CHANNELS 3 Zrotation Yrotation Xrotation
				JOINT LeftForeArm
				{
					OFFSET 4.983000 -0.000000 -0.000000 
					CHANNELS 3 Zrotation Yrotation Xrotation
					JOINT LeftHand
					{
						OFFSET 3.483560 -0.000000 -0.000000 
						CHANNELS 3 Zrotation Yrotation Xrotation
						JOINT LeftHandIndex1
						{
							OFFSET 0.715260 -0.000000 -0.000000 
							CHANNELS 3 Zrotation Yrotation Xrotation
							End Site
							{
								OFFSET 0.000000 0.000000 0.000000 
							}
						}
					}
				}
			}
			JOINT RightArm
			{
				OFFSET -3.136600 1.374050 -0.404650 
				CHANNELS 3 Zrotation Yrotation Xrotation
				JOINT RightForeArm
				{
					OFFSET -5.241900 -0.000000 -0.000000 
					CHANNELS 3 Zrotation Yrotation Xrotation
					JOINT RightHand
					{
						OFFSET -3.444170 -0.000000 -0.000000 
						CHANNELS 3 Zrotation Yrotation Xrotation
						JOINT RightHandIndex1
						{
							OFFSET -0.622530 -0.000000 -0.000000 
							CHANNELS 3 Zrotation Yrotation Xrotation
							End Site
							{
								OFFSET 0.000000 0.000000 0.000000 
							}
						}
					}
				}
			}
		}
	}
}
MOTION
Frames: 6
Frame Time: 0.041667
-0.361852 14.807890 3.332891 -4.454098 8.708995 19.805349 -7.300396 -8.001499 -56.613173 11.279610 22.986590 67.900954 0.794247 6.115480 -22.253853 0.479400 -4.440300 -12.318700 23.225455 0.764158 -53.307336 -11.702059 -23.215077 70.540472 -1.581821 -4.675706 -26.759307 -0.622800 5.050300 -14.052000 0.870007 -2.222610 -4.524764 -5.872295 -0.825241 -7.393280 4.216800 10.938723 0.699872 -3.938400 5.008400 4.729500 -26.632483 -54.545534 -13.251170 26.410493 -29.354377 -5.129721 0.262693 4.666046 6.442056 -7.125000 0.000000 0.000000 91.496772 -1.552302 41.235247 -40.506001 46.037531 -11.395540 -1.531998 -3.114410 -3.614219 7.125000 0.000000 0.000000 
-0.368088 14.868629 3.337191 -4.471546 8.653831 19.852975 -7.381701 -8.046528 -56.168176 10.959758 22.852196 67.003309 0.730916 6.305489 -21.970422 0.466300 -4.380000 -12.148300 23.383123 0.903177 -52.923825 -11.376187 -23.103658 69.652678 -1.516340 -4.765894 -26.463076 -0.603600 4.973100 -13.831900 0.870445 -2.197385 -4.535503 -5.859495 -0.819780 -7.353427 4.277742 10.796371 0.716947 -3.902200 4.946200 4.724400 -27.560039 -53.648393 -11.798955 27.352318 -30.158971 -5.447677 0.185778 4.668348 5.529475 -7.125000 0.000000 0.000000 91.524274 -1.567070 41.109787 -40.420514 45.982845 -11.330996 -1.497646 -3.117009 -3.517790 7.125000 0.000000 0.000000 
-0.374430 14.931733 3.341706 -4.480944 8.597481 19.898565 -7.477560 -8.097941 -55.693063 10.625914 22.705942 66.061697 0.665177 6.509500 -21.676103 0.453800 -4.321400 -11.982800 23.536340 1.043592 -52.513394 -11.038664 -22.980748 68.727012 -1.449297 -4.859842 -26.155996 -0.584100 4.893400 -13.604900 0.870613 -2.174004 -4.545898 -5.848986 -0.815534 -7.302274 4.343250 10.648467 0.748282 -3.862500 4.883500 4.728700 -28.505841 -52.698568 -10.345805 28.349014 -31.004733 -5.796563 0.111544 4.661929 4.622938 -7.125000 0.000000 0.000000 91.557343 -1.574028 40.976920 -40.323851 45.923211 -11.261125 -1.462116 -3.120890 -3.445834 7.125000 0.000000 0.000000 
-0.381203 14.996879 3.346543 -4.483659 8.536589 19.944604 -7.585161 -8.152131 -55.192856 10.279369 22.547094 65.078284 0.596960 6.728677 -21.369742 0.441800 -4.265000 -11.823300 23.684843 1.193971 -52.082794 -10.691231 -22.847425 67.767710 -1.380145 -4.963310 -25.837059 -0.564900 4.813600 -13.377800 0.870309 -2.150597 -4.556913 -5.840507 -0.811348 -7.244476 4.414094 10.494118 0.795396 -3.819800 4.820200 4.743800 -29.466692 -51.706378 -8.900591 29.383071 -31.871892 -6.170888 0.038034 4.645444 3.757878 -7.125000 0.000000 0.000000 91.596368 -1.577205 40.840680 -40.219412 45.860731 -11.188909 -1.426681 -3.127216 -3.414916 7.125000 0.000000 0.000000 
-0.388943 15.062886 3.350091 -4.469013 8.499688 20.018052 -7.696256 -8.236652 -54.712245 9.921384 22.380869 64.057882 0.525398 6.961825 -21.040779 0.430300 -4.209500 -11.666700 23.822112 1.331746 -51.673626 -10.339707 -22.706090 66.789437 -1.309661 -5.072146 -25.508527 -0.545600 4.732200 -13.146300 0.871123 -2.141213 -4.570078 -5.832682 -0.814334 -7.173896 4.488505 10.336185 0.855446 -3.776000 4.757000 4.770300 -30.425946 -50.663829 -7.455448 30.454998 -32.761419 -6.571522 -0.035568 4.617022 2.944584 -7.125000 0.000000 0.000000 91.639448 -1.568402 40.708304 -40.101195 45.791984 -11.112453 -1.394430 -3.134764 -3.421849 7.125000 0.000000 0.000000 
-0.397436 15.129752 3.352564 -4.442939 8.475027 20.110282 -7.808260 -8.340398 -54.240055 9.553099 22.204842 63.001279 0.451424 7.205404 -20.690322 0.417700 -4.148300 -11.494100 23.952129 1.471079 -51.275623 -9.982589 -22.556434 65.788417 -1.236524 -5.196028 -25.168564 -0.527700 4.655300 -12.927900 0.872508 -2.139465 -4.585777 -5.825137 -0.821104 -7.100842 4.565383 10.174634 0.925671 -3.732000 4.693700 4.804600 -31.401605 -49.564747 -5.998298 31.569442 -33.674514 -7.002813 -0.107637 4.576785 2.217499 -7.125000 0.000000 0.000000 91.684809 -1.557769 40.582997 -39.973148 45.718420 -11.034656 -1.367064 -3.143762 -3.463820 7.125000 0.000000 0.000000 
